<svg id="Group_737" data-name="Group 737" xmlns="http://www.w3.org/2000/svg" xmlns:xlink="http://www.w3.org/1999/xlink" width="76.365" height="171.334" viewBox="0 0 76.365 171.334">
  <defs>
    <clipPath id="clip-path">
      <rect id="Rectangle_747" data-name="Rectangle 747" width="76.365" height="171.334" fill="none"/>
    </clipPath>
  </defs>
  <g id="Group_736" data-name="Group 736" clip-path="url(#clip-path)">
    <path id="Path_2169" data-name="Path 2169" d="M35.3,171.22a3.512,3.512,0,0,1-2.335-.823,1.035,1.035,0,0,1-.252-1.34.831.831,0,0,1,1.172-.359c3.008,1.349,5.9.3,8.784-.46a11.045,11.045,0,0,0,3.584-1.271c1.3-.88,1.489-1.306.807-2.747a8.832,8.832,0,0,0-2.326-3A28.154,28.154,0,0,1,42.5,159.1c-.726-.759-1.763-1.166-2.572-1.87a17.7,17.7,0,0,1-2.9-3.015c-1.829-2.565-.87-5.752,1.706-7.465.444-.295.838-.663,1.267-.982a1.651,1.651,0,0,1,2.141-.242,1.792,1.792,0,0,1,.881,2.213,8.615,8.615,0,0,0-.376,1.935c-.189,1.447-1.114,1.942-2.456,1.3-.318-.151-.6-.58-.977-.268s-.311.822-.238,1.274c.253,1.545,1.363,2.511,2.443,3.452,1.987,1.73,4.082,3.336,5.961,5.187a9.171,9.171,0,0,1,2.778,4.705,2.861,2.861,0,0,1-1.831,3.471c-3.392,1.678-7.061,2.1-10.752,2.425a6.022,6.022,0,0,1-2.271,0" fill="#fff"/>
    <path id="Path_2170" data-name="Path 2170" d="M65.106,90.556c-1.025-.115-2.05-.223-3.074-.348-.244-.029-.512-.148-.634.165a.5.5,0,0,0,.233.641c.742.371.74.894.406,1.54a1.219,1.219,0,0,1-1.389.772,1.449,1.449,0,0,1-1.331-1.245,13.307,13.307,0,0,1,.046-2.953,24.9,24.9,0,0,0-2.1-10.045,3.577,3.577,0,0,1-.067-2.3c.218-.942.936-1.113,1.639-.458a2.166,2.166,0,0,1,.585,1.062,44.979,44.979,0,0,1,1.317,6.139c.308,2.276.322,2.178,2.178.828a31.531,31.531,0,0,1,5.009-2.93A3.781,3.781,0,0,0,69.7,79.779c.286-.526.508-1.284,1.246-1.2a1.5,1.5,0,0,1,1.3,1.179,2.008,2.008,0,0,1-.552,2.157,14.7,14.7,0,0,1-2.029,1.166,41.508,41.508,0,0,0-5.243,3c-.492.341-.967.75-.806,1.4.15.608.75.711,1.293.759,1.285.113,2.372.93,3.673,1a2.389,2.389,0,0,1,2.253,1.118c.241.428.876.5,1.332.576,1.37.237,2.467,1.112,3.768,1.485.191.055.464.078.425.351-.048.337-.349.284-.588.263a7.273,7.273,0,0,1-1.812-.356c-1.318-.464-2.658-.865-3.99-1.288a26.827,26.827,0,0,0-4.865-.831" fill="#fff"/>
    <path id="Path_2171" data-name="Path 2171" d="M12.885,79.507a11.51,11.51,0,0,1-2.1-.458c-.279-.036-.612-.162-.817.091s.005.564.13.806c.473.913.976,1.807,1.43,2.732a32.848,32.848,0,0,1,1.738,4.608c.888,2.805.669,3.716-1.848,5.086-1.469.8-3.135,1.479-4.934.647a2.256,2.256,0,0,1-1.43-2.666c.212-.749.67-.909,1.264-.441,1.626,1.281,2.948,1.36,4.553.164.875-.651.71-1.618.434-2.49a30.256,30.256,0,0,0-3.344-6.85,1.686,1.686,0,0,1-.411-1.37c.2-.732-.175-.935-.808-1.041a4.033,4.033,0,0,0-3.593.8,1.613,1.613,0,0,1-2.234.022A2.012,2.012,0,0,1,.2,76.633a1.732,1.732,0,0,1,2.343-.711,4.3,4.3,0,0,0,1.817.3,34.022,34.022,0,0,1,5.415.382,7.2,7.2,0,0,1,2.392.565,4.21,4.21,0,0,0,2.409.345c.532-.086.919.02,1.061.559a1.055,1.055,0,0,1-.526,1.26,3.081,3.081,0,0,1-2.228.176" fill="#fff"/>
    <path id="Path_2172" data-name="Path 2172" d="M35.4,58.374c.194,1.11-.256,2.521-.067,3.963.348,2.651-.364,5.239-.584,7.857-.049.593-.358,1.288-1.207,1.036a1.181,1.181,0,0,1-.916-1.518c.666-2.456.551-4.98.71-7.48.073-1.141.06-2.29.184-3.425a16.643,16.643,0,0,0-.178-4.664c-.135-.79-.491-1.657.341-2.287a3.736,3.736,0,0,1,3.4-.059A7.229,7.229,0,0,1,39.7,55.732c.543,1.612.651,3.378,1.754,4.787a.925.925,0,0,1,.244.558c-.152,1.575.923,2.027,2.123,2.375.194.056.444.057.5.289.062.254-.2.315-.352.437-.718.578-1.866.49-2.319,1.492a.389.389,0,0,1-.317-.03c-.834-1.216-2.189-.708-3.3-1-1.133-.293-1.525-1.151-.894-2.126a1.036,1.036,0,0,1,1.366-.5c.308.118.619.225.928.341.666.249,1.073-.055.861-.677-.762-2.243-1.226-4.617-2.66-6.587-.569-.781-1.162-.715-1.522.207a11.378,11.378,0,0,0-.719,3.067" fill="#fff"/>
    <path id="Path_2173" data-name="Path 2173" d="M28.245,83.623a2.009,2.009,0,0,0,1.328,2.205c.494.213,1.313.081,1.41.772.108.763-.675.955-1.209,1.213A1.327,1.327,0,0,0,28.9,89.26a6.933,6.933,0,0,1-.165,1.716c-.175.963-.785,1.192-1.6.629a3.8,3.8,0,0,1-.374-.322c-1.092-.994-1.182-.969-1.586.444a1.67,1.67,0,0,1-1.647,1.188c-.8-.118-.789-.759-.78-1.325a6.453,6.453,0,0,0-.723-3.559c-.347-.584.016-1.143.575-1.436a2,2,0,0,0,1.037-1.819c.14-1.428.433-2.82-.591-4.127a1.944,1.944,0,0,1,.074-2.114,1.473,1.473,0,0,1,1.34-.746,1.015,1.015,0,0,1,.962.832A3.954,3.954,0,0,0,26.989,80.6a3.728,3.728,0,0,1,1.256,3.028m-1.586,2.092c.367-.1.406-.424.4-.754,0-.292-.071-.626-.438-.6-.426.033-.422.43-.445.749a.487.487,0,0,0,.483.6m-.274,3.622A.537.537,0,0,0,26.971,89c.062-.225-.116-.376-.351-.388a.466.466,0,0,0-.518.4c-.042.2.129.269.283.327" fill="#fff"/>
    <path id="Path_2174" data-name="Path 2174" d="M43.433,133.307a12.84,12.84,0,0,1-2.017,5.8c-1.327,2.292-4.182,2.525-6.282.914-2-1.536-2.2-3.606-2.337-5.791-.023-.366,0-.737-.023-1.1-.088-1.2.579-2.2,1.466-2.186a2.188,2.188,0,0,1,1.724,2.23,7.147,7.147,0,0,1-.3,1.061,3.544,3.544,0,0,0,.854,3.542c1.032,1.055,2.285.78,3.142-.582a8.946,8.946,0,0,0,1.013-3.152c.2-1.007.417-2.005.656-3a6.472,6.472,0,0,0,.042-3.184,1.1,1.1,0,0,1,.935-1.546c.864-.184,1.07.41,1.252,1.018a2.213,2.213,0,0,1,.147.969c-.3,1.671.044,3.374-.276,5.015" fill="#fff"/>
    <path id="Path_2175" data-name="Path 2175" d="M30.726,36.762A15.063,15.063,0,0,1,36.594,26.07a12.4,12.4,0,0,1,2.438-1.439c.36-.172.679-.292,1.012.039a1.978,1.978,0,0,1,.558,1.7c-.052.451-.53.574-.869.529-.947-.126-1.405.58-1.989,1.059a13.8,13.8,0,0,0-4.47,6.239,14.311,14.311,0,0,0-.747,5.706c.18,2.554,2.161,3.882,4.956,3.487a30.5,30.5,0,0,1,3.54-.5c.723-.016,1.371.254,2.069.27a.466.466,0,0,1,.5.449.532.532,0,0,1-.33.478,2.661,2.661,0,0,1-1.036.371c-1.382.183-2.75.448-4.117.73a7.79,7.79,0,0,1-4.829-.618c-1.432-.645-1.875-2.045-2.251-3.382a8.674,8.674,0,0,1-.3-4.422" fill="#fff"/>
    <path id="Path_2176" data-name="Path 2176" d="M43.9,108.962c-.6.105-.869.749-1.456.954a4.421,4.421,0,0,1-1.3.374c-1.095.019-1.311.692-1.26,1.56.058.983.167,1.964.279,2.942a7.758,7.758,0,0,1-.183,2.331c-.086.458-.326.917-.885.846-.47-.06-.62-.475-.645-.927q-.138-2.58-.291-5.158c-.071-1.195-.324-1.394-1.51-1.356a10.646,10.646,0,0,0-1.711.194,3.41,3.41,0,0,1-.732.072c-.908-.024-1.775-.7-1.8-1.374-.022-.6.845-1.169,1.783-1.182.74-.01,1.483.019,2.217-.046a.968.968,0,0,0,1.007-1.231,18.3,18.3,0,0,0-1.653-6.021,5.984,5.984,0,0,1-.667-1.584,1.539,1.539,0,0,1,1.011-1.972c.837-.258,1.339.056,1.764,1.082.642,1.549.555,3.23.867,4.839a16.614,16.614,0,0,1,.526,3.647c-.024.847.411,1.264,1.293,1.25a5.425,5.425,0,0,1,2.9.313c.168.093.418.058.441.447" fill="#fff"/>
    <path id="Path_2177" data-name="Path 2177" d="M32.55,85.169c.139-2.911,1.778-4.893,3.4-6.861.534-.646,1.257-.535,1.781.153a6.8,6.8,0,0,1,1.2,3.067c.123.735-.454,1.093-1.11,1.231a3.134,3.134,0,0,1-.736-.044c-.549-.023-1.085-.757-1.6-.224a4.072,4.072,0,0,0-1.064,2.175,5.745,5.745,0,0,0,2.248,5.761,2.282,2.282,0,0,0,1.977.425c1.6-.358,3.222-.608,4.833-.917a1.763,1.763,0,0,1,1.195.159c.414.217.853.449.683,1.014-.155.517-.618.464-1.034.4-1.64-.244-3.056.46-4.483,1.076-1.645.71-3.326,1.047-4.7-.346a8.083,8.083,0,0,1-2.664-6.388c.021-.288.063-.573.075-.684" fill="#fff"/>
    <path id="Path_2178" data-name="Path 2178" d="M63.268,4.777a3.014,3.014,0,0,1-.76,1.3c-1.7,1.768-3.459,3.482-5.048,5.343-1.181,1.384-2.688,2.4-3.859,3.777a.687.687,0,0,1-.2.141c-.67.374-1.441,1.045-2.075.218-.546-.711.287-1.246.711-1.752,2.134-2.55,4.512-4.886,6.585-7.49A4.482,4.482,0,0,0,59.665,4a1.657,1.657,0,0,1,1.841-1.575,2.649,2.649,0,0,1,1.762,2.354" fill="#fff"/>
    <path id="Path_2179" data-name="Path 2179" d="M15.2,17.479a5.421,5.421,0,0,1-1.915-.969,56.494,56.494,0,0,1-6.471-5.665A17.928,17.928,0,0,0,5.15,9.573a4.1,4.1,0,0,1-.987-.92,1.378,1.378,0,0,1,.16-1.978c.684-.6,1.216-.249,1.709.25q2.122,2.143,4.221,4.313a19.14,19.14,0,0,0,5.559,3.978c.644.307,1.05.731.893,1.409-.162.7-.772.9-1.508.854" fill="#fff"/>
    <path id="Path_2180" data-name="Path 2180" d="M31.206,1.416A1.293,1.293,0,0,1,32.235.052c.725-.226.938.341,1.266.727a1.765,1.765,0,0,1,.452.726c.413,2.213,1.235,4.36,1.066,6.671a1.815,1.815,0,0,0,.659,1.877A.832.832,0,0,1,36.1,11.2c-.254.525-.574,1-1.28.994a1.651,1.651,0,0,1-1.678-1.461c-.271-1.579-.332-3.182-.647-4.762a13.539,13.539,0,0,0-1.006-3.027,2.2,2.2,0,0,1-.28-1.526" fill="#fff"/>
  </g>
</svg>
