<svg xmlns="http://www.w3.org/2000/svg" xmlns:xlink="http://www.w3.org/1999/xlink" width="172.822" height="78.757" viewBox="0 0 172.822 78.757">
  <defs>
    <clipPath id="clip-path">
      <rect id="Rectangle_456" data-name="Rectangle 456" width="172.822" height="78.757" fill="none"/>
    </clipPath>
  </defs>
  <g id="Group_730" data-name="Group 730" transform="translate(-205.445 750.918)">
    <g id="Group_729" data-name="Group 729" transform="translate(205.445 -750.918)">
      <g id="Group_723" data-name="Group 723" clip-path="url(#clip-path)">
        <path id="Path_2127" data-name="Path 2127" d="M9.59,145.07V128.579H15.2a9.2,9.2,0,0,1,6.552,2.275,8.049,8.049,0,0,1,2.3,6.008,7.6,7.6,0,0,1-2.151,5.711,8.954,8.954,0,0,1-6.329,2.5Zm4.278-3.634h.865a4.924,4.924,0,0,0,3.61-1.187,4.491,4.491,0,0,0,1.261-3.387,4.932,4.932,0,0,0-1.286-3.61,4.806,4.806,0,0,0-3.412-1.038H13.868Z" transform="translate(-4.974 -66.684)" fill="#fff"/>
        <path id="Path_2128" data-name="Path 2128" d="M53.623,132.213H48.53v2.744h4.821v3.634H48.53v2.843h5.093v3.634h-9.37V128.579h9.37Z" transform="translate(-22.95 -66.684)" fill="#fff"/>
        <path id="Path_2129" data-name="Path 2129" d="M69.653,139.725a5.777,5.777,0,0,0,3.783,1.681,2.172,2.172,0,0,0,1.657-.569,1.476,1.476,0,0,0,.421-1.039,1.288,1.288,0,0,0-.47-.989,5.937,5.937,0,0,0-2.126-.866L71.8,137.6a5.383,5.383,0,0,1-2.374-1.335,4.151,4.151,0,0,1-.94-2.918A5.4,5.4,0,0,1,70,129.365a5.815,5.815,0,0,1,4.228-1.557,11.585,11.585,0,0,1,5.093,1.335l-1.706,3.337a4.351,4.351,0,0,0-2.819-1.112,2.054,2.054,0,0,0-1.409.494,1.221,1.221,0,0,0-.42.891,1.1,1.1,0,0,0,.222.742,2.715,2.715,0,0,0,1.434.741l1.31.4a6.3,6.3,0,0,1,2.992,1.632,3.892,3.892,0,0,1,1.063,2.942,5.586,5.586,0,0,1-1.558,4.154,6.393,6.393,0,0,1-4.871,1.681,8.809,8.809,0,0,1-3.239-.544,11.506,11.506,0,0,1-2.5-1.311Z" transform="translate(-35.175 -66.284)" fill="#fff"/>
        <rect id="Rectangle_455" data-name="Rectangle 455" width="4.278" height="16.491" transform="translate(47.506 61.894)" fill="#fff"/>
        <path id="Path_2130" data-name="Path 2130" d="M121.873,135.324h8.5c0,3.263-.667,5.587-2.645,7.417a8.053,8.053,0,0,1-5.81,2.077,8.519,8.519,0,0,1-6.33-2.448,8.312,8.312,0,0,1-2.374-5.958,8.594,8.594,0,0,1,2.473-6.181,9.588,9.588,0,0,1,10.854-1.31,8.083,8.083,0,0,1,2.942,3.387l-4.079,1.682a4.034,4.034,0,0,0-1.187-1.657,3.456,3.456,0,0,0-2.3-.816,3.983,3.983,0,0,0-2.818,1.137,5.563,5.563,0,0,0-1.434,3.783,5.158,5.158,0,0,0,1.31,3.56A3.9,3.9,0,0,0,122,141.258a3.531,3.531,0,0,0,2.373-.766,2.933,2.933,0,0,0,1.014-1.829h-3.511Z" transform="translate(-58.718 -66.284)" fill="#fff"/>
        <path id="Path_2131" data-name="Path 2131" d="M152.454,145.07V128.579h4.278l7.887,10.087V128.579H168.9V145.07h-4.277l-7.887-10.087V145.07Z" transform="translate(-79.066 -66.684)" fill="#fff"/>
        <path id="Path_2132" data-name="Path 2132" d="M215.128,132.213h-5.093v2.744h4.821v3.634h-4.821v2.843h5.093v3.634h-9.37V128.579h9.37Z" transform="translate(-106.711 -66.684)" fill="#fff"/>
        <path id="Path_2133" data-name="Path 2133" d="M236.7,132.213V145.07h-4.278V132.213h-3.511v-3.634h11.3v3.634Z" transform="translate(-118.722 -66.684)" fill="#fff"/>
        <path id="Path_2134" data-name="Path 2134" d="M260.617,134.735H266.8v-6.156h4.3V145.07h-4.3v-6.675h-6.181v6.675H256.34V128.579h4.277Z" transform="translate(-132.944 -66.684)" fill="#fff"/>
        <path id="Path_2135" data-name="Path 2135" d="M306.193,142.593a9.86,9.86,0,0,1-13,0,8.626,8.626,0,0,1,0-12.337,9.86,9.86,0,0,1,13,0,8.626,8.626,0,0,1,0,12.337m-9.84-9.321a4.521,4.521,0,0,0-1.31,3.239,4.193,4.193,0,0,0,1.31,3.066,4.68,4.68,0,0,0,3.337,1.31,4.48,4.48,0,0,0,4.649-4.45A4.452,4.452,0,0,0,303,133.272a4.937,4.937,0,0,0-3.313-1.31,4.75,4.75,0,0,0-3.337,1.31" transform="translate(-150.708 -66.284)" fill="#fff"/>
        <path id="Path_2136" data-name="Path 2136" d="M333.3,139.725a5.776,5.776,0,0,0,3.783,1.681,2.172,2.172,0,0,0,1.656-.569,1.477,1.477,0,0,0,.42-1.039,1.288,1.288,0,0,0-.47-.989,5.932,5.932,0,0,0-2.127-.866l-1.112-.346a5.39,5.39,0,0,1-2.374-1.335,4.15,4.15,0,0,1-.939-2.918,5.393,5.393,0,0,1,1.508-3.981,5.814,5.814,0,0,1,4.228-1.557,11.583,11.583,0,0,1,5.093,1.335l-1.706,3.337a4.351,4.351,0,0,0-2.818-1.112,2.055,2.055,0,0,0-1.409.494,1.221,1.221,0,0,0-.421.891,1.1,1.1,0,0,0,.223.742,2.71,2.71,0,0,0,1.434.741l1.31.4a6.3,6.3,0,0,1,2.992,1.632,3.894,3.894,0,0,1,1.063,2.942,5.587,5.587,0,0,1-1.558,4.154,6.392,6.392,0,0,1-4.871,1.681,8.807,8.807,0,0,1-3.238-.544,11.493,11.493,0,0,1-2.5-1.311Z" transform="translate(-171.908 -66.284)" fill="#fff"/>
        <path id="Path_2137" data-name="Path 2137" d="M.754,105.655a1.393,1.393,0,0,1,.773-.134q7.588,0,15.177.009,7.941,0,15.882,0a5.506,5.506,0,0,0,1.735-.353,8.149,8.149,0,0,1,1.854-.536c.869-.072,1.736-.068,2.6-.068q9.7-.009,19.408,0H98c.746,0,1.494-.031,2.238.028a11.27,11.27,0,0,1,2.077.275,8.675,8.675,0,0,0,1.486.217,14.313,14.313,0,0,1,1.456.256,10.009,10.009,0,0,0,1.972.179q9.319,0,18.639,0c.552,0,1.106,0,1.656.052.4.039.793.179,1.19.254a4.158,4.158,0,0,0,.446.072c.4.031.792.11,1.187.139a7.97,7.97,0,0,1,1.328.154,20.1,20.1,0,0,0,4.075.233c.622.024,1.241.153,1.861.233a15.307,15.307,0,0,0,1.59.232c4.579.113,9.159.034,13.738.034a6.771,6.771,0,0,0,1.607-.121c2.555-.621,5.124-.307,7.687-.383.76-.023,1.52,0,2.281-.011a5.878,5.878,0,0,0,1.612-.34,1.894,1.894,0,0,1,.557-.018c1.279,0,2.558-.006,3.836,0a3.619,3.619,0,0,0,1.093-.2c.2-.064.388.069.58.134a.755.755,0,0,0,.109.324,3.553,3.553,0,0,1,.484,1.985,2.661,2.661,0,0,0,.038.405,1.823,1.823,0,0,1-1.273,1.377,8.7,8.7,0,0,1-2.247.091c-.891.015-1.783,0-2.674,0a5.913,5.913,0,0,0-1.115.231,4.712,4.712,0,0,1-.526.106c-1.152.093-2.306.05-3.459.057-1.624.01-3.248-.034-4.871.039a7.333,7.333,0,0,0-1.725.272,4.692,4.692,0,0,1-1.186.13c-4.606.143-9.213.018-13.82.067a7.9,7.9,0,0,1-1.357-.1c-.742-.122-1.485-.187-2.225-.292-.917-.13-1.83-.035-2.744-.109a13.412,13.412,0,0,1-2.08-.264,5.4,5.4,0,0,0-1.205-.145,11.4,11.4,0,0,1-1.831-.269,11.2,11.2,0,0,0-1.963-.261q-9.68.007-19.36,0c-.456,0-.913,0-1.368-.039a9.993,9.993,0,0,1-1.05-.222c-.306-.058-.613-.055-.918-.124-.755-.168-1.519-.172-2.272-.392a4.172,4.172,0,0,0-1.191-.11q-3.877.009-7.755,0H49.9c-4.327,0-8.653.01-12.98-.02a5.993,5.993,0,0,0-2.277.538,3.766,3.766,0,0,1-1.1.262c-3,.248-6.006.071-9.009.1-3.71.04-7.421,0-11.132,0-3.967,0-7.933.01-11.9,0a1.192,1.192,0,0,1-.82-.148,1.976,1.976,0,0,1-.589-.737c.008-.113,0-.211-.09-.195v0a1.353,1.353,0,0,0,.056-.718A1.652,1.652,0,0,1,.17,106.9a3.19,3.19,0,0,1,.469-.9.662.662,0,0,0,.115-.353" transform="translate(0 -54.231)" fill="#fff"/>
        <path id="Path_2138" data-name="Path 2138" d="M223.738,72.973a5.676,5.676,0,0,1-1.391-.151,9.345,9.345,0,0,1-2.437-.7,7.667,7.667,0,0,1-2.479-1.889,2.107,2.107,0,0,1,.146-2.326,1.1,1.1,0,0,1,1.069.1,1.234,1.234,0,0,1,.26.326,3.359,3.359,0,0,0,1.339,1.384,8.687,8.687,0,0,0,1.163.8,6.339,6.339,0,0,0,1.486.488c.342.066.681.154,1.025.207a3.226,3.226,0,0,0,1.207-.141,7.073,7.073,0,0,0,1.232-.325A1.47,1.47,0,0,0,227.277,69c-.147-.883-.358-1.754-.566-2.625a10.51,10.51,0,0,1-.424-1.707c-.016-.232-.232-.455-.3-.722a2.432,2.432,0,0,0-.259-.686c-.169-.248-.175-.577-.42-.77a.285.285,0,0,1-.12-.272.217.217,0,0,0-.1-.24c-.15-.092-.32-.173-.2-.4.037-.07-.046-.081-.094-.111a.36.36,0,0,1-.2-.37.192.192,0,0,0-.117-.248c-.04-.02-.1-.069-.1-.089.094-.357-.383-.5-.318-.847.03-.161-.237-.179-.227-.268.038-.354-.314-.527-.356-.856a3.514,3.514,0,0,0-.326-.7c-.088-.224-.249-.418-.213-.682.013-.093-.055-.145-.135-.182a.209.209,0,0,1-.131-.153c-.028-.189.038-.428-.184-.524a2.583,2.583,0,0,0-.808-.168,10.747,10.747,0,0,0-1.9.24,29.537,29.537,0,0,1-3.117.024,1.158,1.158,0,0,1-.989-.608,1.008,1.008,0,0,1,.7-1.288c.325-.026.654-.018.981-.012.773.016,1.529-.146,2.294-.188.738-.039,1.436-.276,2.153-.349.964-.1,1.933-.2,2.9-.247a4.843,4.843,0,0,1,.852-.014,5.47,5.47,0,0,0,1.641-.224,3.741,3.741,0,0,0,.955-.281,1.486,1.486,0,0,1,1.121-.018c.071.024.182.042.183.138a2.628,2.628,0,0,1,.021,1,1.07,1.07,0,0,1-.792.6,8.385,8.385,0,0,1-1.258.435c-.8.127-1.5.563-2.3.671a.353.353,0,0,0-.337.383,3.071,3.071,0,0,0,.181,1.122c.216.411.368.85.6,1.25a27.377,27.377,0,0,1,1.87,3.558,16.191,16.191,0,0,1,.837,2.367,19.284,19.284,0,0,1,.581,2.216,16.784,16.784,0,0,1,.413,2.572,3.459,3.459,0,0,1-.794,2.121,2.031,2.031,0,0,1-.97.57,16.29,16.29,0,0,1-3.776.562" transform="translate(-111.817 -27.646)" fill="#fff"/>
        <path id="Path_2139" data-name="Path 2139" d="M321.3,62.974c.035.538.077,1.088.085,1.615.015.964.347,1.887.269,2.85-.017.214-.309.635-.518.663a1.158,1.158,0,0,1-1.5-1.094c-.3-1.72-.231-3.484-.582-5.2q-.383-1.872-.721-3.751a19.094,19.094,0,0,1-.626-4.111,2.4,2.4,0,0,1,.07-.689,1.011,1.011,0,0,1,1.026-.7,1.111,1.111,0,0,1,.893.972,15.532,15.532,0,0,0,.028,1.925c.073.526.238,1.047.348,1.574.043.206.188.349.087.628-.136.375.452.8.866.732a4.015,4.015,0,0,0,1.9-1.064c.768-.635,1.484-1.339,2.292-1.917.632-.452,1.117-1.043,1.715-1.516a3.114,3.114,0,0,1,2.487-.822c.426.072.881.238.977.789a.506.506,0,0,1-.172.52,6.821,6.821,0,0,1-1.535.813,11,11,0,0,0-2.027,1.473,36.822,36.822,0,0,1-3.272,2.764.487.487,0,0,0-.024.787,10.709,10.709,0,0,0,1.118,1.047c.8.624,1.484,1.371,2.248,2.028a23.309,23.309,0,0,0,3.008,2.183,16.548,16.548,0,0,0,1.951,1.059,3.883,3.883,0,0,1,.96.446c.549.44.62.743.233,1.354a.881.881,0,0,1-1.192.193c-.173-.094-.321-.215-.537-.147-.046.014-.112-.024-.166-.047a14.581,14.581,0,0,1-2.67-1.249,11.648,11.648,0,0,1-1.08-.987c-.806-.749-1.674-1.43-2.516-2.133a12.938,12.938,0,0,0-1.654-1.357c-.451-.265-.766-.667-1.187-.952-.141-.095-.3-.234-.478-.135-.154.085-.1.271-.1.417-.006.348,0,.7,0,1.045" transform="translate(-164.769 -27.252)" fill="#fff"/>
        <path id="Path_2140" data-name="Path 2140" d="M16.248,70.245a7.514,7.514,0,0,1-2.18-.313c-.661-.133-1.319-.29-1.969-.47a4.424,4.424,0,0,1-2.714-1.614,7.158,7.158,0,0,1-.674-1.074,11.027,11.027,0,0,1-.671-1.518,7.666,7.666,0,0,1-.223-3.076,19.538,19.538,0,0,1,.447-2.305,6.125,6.125,0,0,1,.493-1.85c.108-.173,0-.428.078-.645.309-.876.453-1.806.838-2.651A7,7,0,0,1,11.4,52.4a8.914,8.914,0,0,1,1.446-1,11.453,11.453,0,0,1,1.422-.725,1.068,1.068,0,0,1,.559-.162.308.308,0,0,0,.17-.023,5.575,5.575,0,0,1,3.129-.522A2.048,2.048,0,0,1,20,51.152,1.952,1.952,0,0,1,20,52.6a.587.587,0,0,1-.675.322c-.311-.1-.633-.1-.943-.206a6.111,6.111,0,0,0-3.173-.2,6.89,6.89,0,0,0-.946.182A4.961,4.961,0,0,0,11.9,54.727a5.19,5.19,0,0,0-.789,1.638,6.233,6.233,0,0,0-.379,1.376,9.542,9.542,0,0,1-.414,1.748,16.777,16.777,0,0,0-.665,3.855,5.243,5.243,0,0,0,.309,1.8A4.051,4.051,0,0,0,12.6,67.528c.582.216,1.2.294,1.782.493a7.328,7.328,0,0,0,1.216.1,14.215,14.215,0,0,0,1.87.245,2.285,2.285,0,0,0,1.258-.408A17.306,17.306,0,0,0,21.117,66.2a3.673,3.673,0,0,1,1.47-.979,1.054,1.054,0,0,1,1.12.405c.347.579.325.738-.156,1.208a2.659,2.659,0,0,1-.678.483,1.64,1.64,0,0,0-.546.421,6.865,6.865,0,0,1-1.77,1.436,7.555,7.555,0,0,1-4.309,1.069" transform="translate(-4.02 -25.899)" fill="#fff"/>
        <path id="Path_2141" data-name="Path 2141" d="M47.977,67.371a2.028,2.028,0,0,0,1.695-.72c.274-.28.549-.56.819-.844a.522.522,0,0,0,.126-.2,5.027,5.027,0,0,1,.769-1.551,2.513,2.513,0,0,0,.162-.448,4.841,4.841,0,0,1,1.528-1.719,1.584,1.584,0,0,1,1.488-.335,1.425,1.425,0,0,1,.886.66c.316.588.663,1.164.961,1.764.16.32.254.673.417.99.211.409.285.918.711,1.179a1.631,1.631,0,0,0,1.144.164,3.3,3.3,0,0,1,.731-.057.926.926,0,0,1,.809,1.174.263.263,0,0,1-.206.168,3.44,3.44,0,0,0-.791.472c-.623.384-.578,1.033-.507,1.648a15.225,15.225,0,0,0,.787,2.4c.12.417.272.826.388,1.245.082.3.3.532.3.875a.9.9,0,0,1-.569.938,1.575,1.575,0,0,1-1.225,0c-.239-.1-.319-.381-.415-.609a1.235,1.235,0,0,1-.116-.5,5.764,5.764,0,0,0-.456-2.117c-.184-.528-.336-1.068-.536-1.592a1.283,1.283,0,0,1-.079-.478c0-.153.017-.306-.175-.372-.037-.013-.087-.067-.085-.1a.9.9,0,0,0-.591-.855,2.386,2.386,0,0,0-1.723-.211,4.487,4.487,0,0,1-.777.142,3.92,3.92,0,0,0-3.073,2.1,5.637,5.637,0,0,0-.654,2.868,2.178,2.178,0,0,1-.177,1.217c-.265.446-.674.294-1.033.289-.281,0-.309-.288-.43-.5a2.364,2.364,0,0,1-.321-1.344,4.545,4.545,0,0,1,.289-1.553,2.961,2.961,0,0,0,.348-1.7.528.528,0,0,0-.245-.421,2.436,2.436,0,0,0-.818-.453c-.492-.1-.654-.521-.535-1.046a.869.869,0,0,1,.885-.576c.116,0,.233,0,.3,0m6.847-1.945c-.044-.244.125-.575-.24-.741.063-.43-.291-.377-.528-.426a1.149,1.149,0,0,0-1.144.617,6.02,6.02,0,0,0-.111,1.1.575.575,0,0,0,.517.56,2.85,2.85,0,0,0,.559-.009.956.956,0,0,0,.948-1.1" transform="translate(-24.249 -31.885)" fill="#fff"/>
        <path id="Path_2142" data-name="Path 2142" d="M261.263,64.782a.3.3,0,0,0,0,.1c.253.739.352,1.526.613,2.252a4.829,4.829,0,0,0,1.456,2.145.9.9,0,0,1-.334,1.543.539.539,0,0,1-.44-.045,5.057,5.057,0,0,1-1.447-1.118,3.15,3.15,0,0,1-.842-1.178,1.986,1.986,0,0,1-.161-.6,9.256,9.256,0,0,0-.3-1.459c-.037-.242-.33-.373-.5-.562a.851.851,0,0,0-.651-.28,14.614,14.614,0,0,0-3.713.567.571.571,0,0,1-.173.013,1.686,1.686,0,0,0-1.553.869c-.243.3-.361.7-.626.992a.343.343,0,0,0-.047.267,1.336,1.336,0,0,1-.171.7.658.658,0,0,0-.1.328.783.783,0,0,1-.219.651c-.14.142-.156.417-.326.613a.765.765,0,0,1-.855.264c-.825-.221-.983-.556-.933-1.354a3.883,3.883,0,0,1,.571-1.6,3.638,3.638,0,0,0,.438-1.157,2.154,2.154,0,0,0-.251-1.337.544.544,0,0,1,.329-.741,2.383,2.383,0,0,0,1.263-.869,15.6,15.6,0,0,0,1.04-1.615c.252-.5.394-1.05.651-1.549a4.525,4.525,0,0,1,.7-1.185,1.877,1.877,0,0,0,.359-.728,3.665,3.665,0,0,1,.595-1.24,1.325,1.325,0,0,1,2.331.173c.619,1.047,1.177,2.123,1.756,3.189a17.2,17.2,0,0,1,1.225,2.7,2.9,2.9,0,0,1,.313,1.257m-5.671-.849a11.366,11.366,0,0,0,2.7-.5c.1-.024.266-.052.247-.2-.034-.273-.014-.634-.179-.793-.294-.284-.041-.816-.516-.967.151-.3-.165-.4-.269-.588a2.132,2.132,0,0,0-.509-.569.469.469,0,0,0-.818.224,2,2,0,0,1-.228.466,5.624,5.624,0,0,0-1.067,2.44c-.05.385,0,.48.4.49.082,0,.163,0,.245,0" transform="translate(-129.62 -29.485)" fill="#fff"/>
        <path id="Path_2143" data-name="Path 2143" d="M178.309,69.842c-.521.042-1.171-.031-1.825.021a3.06,3.06,0,0,1-.8-.172,6.055,6.055,0,0,1-2.475-1.039.811.811,0,0,1-.159-1.3.746.746,0,0,1,.785-.23,1.476,1.476,0,0,1,.529.17,6.777,6.777,0,0,0,.8.315,2.167,2.167,0,0,0,.909.2,24.391,24.391,0,0,0,3.1.056,4.058,4.058,0,0,0,1.771-.255,2.292,2.292,0,0,0,.923-.88,1.75,1.75,0,0,0,.008-1.257c-.134-.511-.327-1.007-.51-1.5-.038-.1-.156-.171-.217-.268a11.073,11.073,0,0,0-2.247-2.258c-.717-.64-1.579-1.055-2.345-1.614a6.994,6.994,0,0,1-1.721-1.713,4.552,4.552,0,0,1-.753-2.41,1.629,1.629,0,0,1,.234-.966.252.252,0,0,0,.05-.195c-.092-.414.233-.686.394-.994a5.317,5.317,0,0,1,.745-.814,2.26,2.26,0,0,1,.776-.493,5.811,5.811,0,0,1,3.227-.652,6.716,6.716,0,0,1,2.168.556c.221.1.456.122.551.395a.867.867,0,0,1-.762,1.12q-1.508.02-3.015,0a2.646,2.646,0,0,0-1.677.579,1.962,1.962,0,0,0-.718,1.5,1.815,1.815,0,0,0,.677,1.671c.609.533,1.206,1.075,1.861,1.561.594.44,1.185.9,1.779,1.334a11.528,11.528,0,0,1,1.609,1.378,6.349,6.349,0,0,1,1.441,2.409c.132.408.22.831.349,1.24a3.448,3.448,0,0,1-1.788,3.924,4.7,4.7,0,0,1-2.417.589c-.374-.012-.748,0-1.252,0" transform="translate(-89.616 -26.743)" fill="#fff"/>
        <path id="Path_2144" data-name="Path 2144" d="M290.164,66.668a11.132,11.132,0,0,0,2.636-.408c.6-.109,1.179-.318,1.78-.444.492-.1.988-.234,1.484-.348a2.269,2.269,0,0,1,1.479.214.721.721,0,0,1,.5.676.924.924,0,0,1-.628.719,8.583,8.583,0,0,1-1.746.448,22.014,22.014,0,0,0-2.576.576,6.649,6.649,0,0,1-3.382.458c-.564-.108-1.131-.235-1.692-.366a12.349,12.349,0,0,1-1.855-.71,6.14,6.14,0,0,1-2.128-1.587c-.231-.247-.393-.544-.64-.785a1.709,1.709,0,0,1-.266-.625c-.055-.2-.161-.372-.212-.561a8.689,8.689,0,0,1-.353-3.731,7.264,7.264,0,0,1,.92-2.657,6.505,6.505,0,0,1,1.1-1.456,6.657,6.657,0,0,1,.795-.484,4.331,4.331,0,0,1,1.273-.563,6.007,6.007,0,0,1,1.5-.255,6.184,6.184,0,0,1,1.724.179c.26.07.551-.005.78.219a1.645,1.645,0,0,1,.32,1.734,2.97,2.97,0,0,1-.262.452.621.621,0,0,1-.876.058,3.463,3.463,0,0,0-2.773-.478,3.206,3.206,0,0,0-1.256.778,3.394,3.394,0,0,0-1.18,1.8,5.6,5.6,0,0,0-.1,2.177,3.322,3.322,0,0,1,.045.519,3.613,3.613,0,0,0,.494,1.584,4.7,4.7,0,0,0,1.667,1.862,3.488,3.488,0,0,0,1.7.769,6.658,6.658,0,0,0,1.718.237" transform="translate(-146.503 -28.409)" fill="#fff"/>
        <path id="Path_2145" data-name="Path 2145" d="M82.122,62.823a5.09,5.09,0,0,1,.28-1.888,2.226,2.226,0,0,1,.518-1.007.224.224,0,0,0,.059-.155,4.137,4.137,0,0,1,.8-1.861A8.664,8.664,0,0,1,85.088,56.4a1.354,1.354,0,0,1,.837-.434c.326-.039.588-.274.945-.307a3.773,3.773,0,0,1,2.906.654A2.52,2.52,0,0,1,90.73,57.9a.62.62,0,0,1-.334.61.609.609,0,0,1-.684.059,6.757,6.757,0,0,1-1.173-.666,1.789,1.789,0,0,0-2.248.066,8.323,8.323,0,0,0-1.581,2.269,8.457,8.457,0,0,1-.547,1.288c-.088.117-.015.272-.016.41a5.368,5.368,0,0,0,.068,1.8,2.649,2.649,0,0,0,.374,1.008,2.921,2.921,0,0,1,.323.668,4.571,4.571,0,0,0,.97,1.216,5.44,5.44,0,0,0,3.523,1.625c.513-.032,1.029,0,1.543-.02a2.888,2.888,0,0,0,1.079-.374,6.261,6.261,0,0,0,1.252-.7,1.426,1.426,0,0,1,.744-.235c.443-.032.6.331.755.659a.664.664,0,0,1-.1.779,1.709,1.709,0,0,1-.633.468,2.6,2.6,0,0,0-.7.546,3.551,3.551,0,0,1-2.462.888,11.247,11.247,0,0,1-2.947-.3,7.908,7.908,0,0,1-4.194-2.419,6.978,6.978,0,0,1-1.35-2.572,7.444,7.444,0,0,1-.27-2.15" transform="translate(-42.578 -28.845)" fill="#fff"/>
        <path id="Path_2146" data-name="Path 2146" d="M116.244,53.729a9.114,9.114,0,0,0,2.4-.2,3.1,3.1,0,0,1,1.848.149,2.172,2.172,0,0,0,1.275-.006,4.873,4.873,0,0,1,2.622,0,1.336,1.336,0,0,0,.274.052.39.39,0,0,1,.3.168.862.862,0,0,1-.65,1.327c-1.131.245-2.291.254-3.419.5a.872.872,0,0,0-.582.469,2.366,2.366,0,0,0-.349,1.256,7.965,7.965,0,0,1-.342,2.469,14.759,14.759,0,0,1-.542,2.025c-.24.639-.285,1.336-.565,1.94-.248.537-.241,1.108-.433,1.645a7.669,7.669,0,0,0-.159,1.649,1.766,1.766,0,0,1-.441,1.236,1.218,1.218,0,0,1-1.347.066,1.125,1.125,0,0,1-.332-1.171c.255-.7.283-1.462.514-2.17.2-.617.311-1.257.47-1.883a7.642,7.642,0,0,0,.355-1.5.338.338,0,0,1,.016-.138c.285-.54.214-1.18.5-1.721.11-.207.02-.454.1-.68.129-.342.189-.712.317-1.049a4.448,4.448,0,0,0,.18-1.437c.011-.232-.2-.227-.287-.352a1.86,1.86,0,0,0-1.609-.755,6.688,6.688,0,0,0-2.493.4c-.29.106-.505.419-.751.641a3.141,3.141,0,0,1-.779.628,1.043,1.043,0,0,1-1.425-.552c-.079-.205-.325-.29-.3-.579a1.7,1.7,0,0,1,1.041-1.288,5.224,5.224,0,0,0,.949-.389,3.729,3.729,0,0,1,1.009-.4,5.122,5.122,0,0,1,2.223-.342,2.92,2.92,0,0,0,.421,0" transform="translate(-57.36 -27.723)" fill="#fff"/>
        <path id="Path_2147" data-name="Path 2147" d="M159.684,54.864a4.682,4.682,0,0,1-.259,1.564c-.131.438-.187.894-.329,1.338a4.859,4.859,0,0,1-.491,1.176q-1.233,1.913-2.5,3.8a15.319,15.319,0,0,1-2.769,3.079,4.645,4.645,0,0,1-2.817,1.158,3.009,3.009,0,0,1-1.383-.33,2.675,2.675,0,0,1-.993-.814,2.6,2.6,0,0,1-.5-2.138,28.618,28.618,0,0,0,.409-5.255,2.817,2.817,0,0,1,.995-2.3,1.135,1.135,0,0,1,1.824.353.4.4,0,0,1-.112.474,4.224,4.224,0,0,0-.882,2.856c-.057.738-.017,1.485-.018,2.227a2.644,2.644,0,0,1-.295,1.334,1.273,1.273,0,0,0,.782,1.571,1.858,1.858,0,0,0,.925,0,1.694,1.694,0,0,0,.71-.518c.648-.651,1.3-1.305,1.888-2.006a27.417,27.417,0,0,0,1.954-2.55,12.892,12.892,0,0,0,1.053-1.961,13.2,13.2,0,0,0,.705-2.15,14.5,14.5,0,0,0,.233-1.657.972.972,0,0,1,.927-.635c.617.137.96.364.943,1.071,0,.1,0,.208,0,.313" transform="translate(-76.548 -27.732)" fill="#fff"/>
        <path id="Path_2148" data-name="Path 2148" d="M3.5,104.708c.157-.016.164.082.151.195a.169.169,0,0,1-.151-.195" transform="translate(-1.817 -54.303)" fill="#fff"/>
        <path id="Path_2149" data-name="Path 2149" d="M209.139,5.568a2.276,2.276,0,0,1-.575.98c-1.283,1.337-2.615,2.633-3.817,4.041-.893,1.047-2.033,1.817-2.919,2.856a.547.547,0,0,1-.152.107c-.506.282-1.089.79-1.569.165-.413-.538.218-.943.538-1.326,1.614-1.928,3.412-3.695,4.98-5.664a3.4,3.4,0,0,0,.789-1.747,1.253,1.253,0,0,1,1.392-1.191,2,2,0,0,1,1.333,1.78" transform="translate(-103.71 -1.955)" fill="#fff"/>
        <path id="Path_2150" data-name="Path 2150" d="M134.226,18.4a4.1,4.1,0,0,1-1.448-.733,42.6,42.6,0,0,1-4.893-4.284,13.609,13.609,0,0,0-1.256-.961,3.1,3.1,0,0,1-.747-.7,1.042,1.042,0,0,1,.121-1.5c.517-.455.919-.188,1.293.189q1.605,1.622,3.192,3.262a14.464,14.464,0,0,0,4.2,3.009c.487.232.794.553.675,1.065-.123.53-.584.681-1.14.646" transform="translate(-65.151 -5.181)" fill="#fff"/>
        <path id="Path_2151" data-name="Path 2151" d="M168.6,1.071a.978.978,0,0,1,.778-1.032c.548-.171.709.258.957.55a1.338,1.338,0,0,1,.342.548c.312,1.674.934,3.3.806,5.046a1.372,1.372,0,0,0,.5,1.419.63.63,0,0,1,.317.866c-.193.4-.434.758-.968.752a1.249,1.249,0,0,1-1.269-1.105c-.205-1.194-.251-2.406-.489-3.6a10.27,10.27,0,0,0-.761-2.289,1.663,1.663,0,0,1-.212-1.154" transform="translate(-87.422 0)" fill="#fff"/>
      </g>
    </g>
  </g>
</svg>
