<?xml version="1.0" encoding="UTF-8"?>
<svg id="Layer_2" data-name="Layer 2" xmlns="http://www.w3.org/2000/svg" viewBox="0 0 69.53 69.53">
  <defs>
    <style>
      .cls-1, .cls-2, .cls-3 {
        stroke-width: 0px;
      }

      .cls-2 {
        fill: #614945;
      }

      .cls-3 {
        fill: #e5e5de;
      }
    </style>
  </defs>
  <g id="Layer_1-2" data-name="Layer 1">
    <g>
      <circle class="cls-3" cx="34.77" cy="34.77" r="31.9"/>
      <circle class="cls-1" cx="34.77" cy="22.68" r="11.71"/>
      <path class="cls-2" d="m34.77,69.53C15.6,69.53,0,53.94,0,34.77S15.6,0,34.77,0s34.77,15.6,34.77,34.77-15.6,34.77-34.77,34.77Zm0-66.03C17.53,3.5,3.5,17.53,3.5,34.77s14.03,31.27,31.27,31.27,31.27-14.03,31.27-31.27S52.01,3.5,34.77,3.5Z"/>
      <path class="cls-1" d="m52.52,60.48v-9.99h-.02c-.18-7.01-4.4-13-10.44-15.73-2,1.6-4.54,2.56-7.3,2.56s-5.3-.96-7.3-2.56c-6.03,2.73-10.26,8.72-10.44,15.73h-.02v9.99c5.05,3.5,11.17,5.55,17.76,5.55s12.71-2.06,17.76-5.55Z"/>
    </g>
  </g>
</svg>